<?xml version="1.0" encoding="UTF-8" standalone="no"?>
<!-- Created with Inkscape (http://www.inkscape.org/) -->

<svg
   width="500"
   height="500"
   viewBox="0 0 132.29166 132.29167"
   version="1.1"
   id="svg1"
   xml:space="preserve"
   xmlns="http://www.w3.org/2000/svg"
   xmlns:svg="http://www.w3.org/2000/svg"><defs
     id="defs1" /><g
     id="layer2"
     transform="rotate(45,316.90673,-923.54771)"><path
       id="path336-6"
       style="color:#000000;font-style:normal;font-variant:normal;font-weight:normal;font-stretch:normal;font-size:medium;line-height:normal;font-family:sans-serif;font-variant-ligatures:normal;font-variant-position:normal;font-variant-caps:normal;font-variant-numeric:normal;font-variant-alternates:normal;font-variant-east-asian:normal;font-feature-settings:normal;font-variation-settings:normal;text-indent:0;text-align:start;text-decoration-line:none;text-decoration-style:solid;text-decoration-color:#000000;letter-spacing:normal;word-spacing:normal;text-transform:none;writing-mode:lr-tb;direction:ltr;text-orientation:mixed;dominant-baseline:auto;baseline-shift:baseline;text-anchor:start;white-space:normal;shape-padding:0;shape-margin:0;inline-size:0;clip-rule:nonzero;display:inline;overflow:visible;visibility:visible;isolation:auto;mix-blend-mode:normal;color-interpolation:sRGB;color-interpolation-filters:linearRGB;solid-color:#000000;solid-opacity:1;vector-effect:none;fill:#6a86d1;fill-opacity:1;fill-rule:nonzero;stroke:none;stroke-linecap:round;stroke-linejoin:round;stroke-miterlimit:4;stroke-dasharray:none;stroke-dashoffset:0;stroke-opacity:1;-inkscape-stroke:none;color-rendering:auto;image-rendering:auto;shape-rendering:auto;text-rendering:auto;enable-background:accumulate;stop-color:#000000"
       transform="matrix(1.9681652,1.9681652,-1.9681652,1.9681652,2948.6458,-408.5686)"
       d="m -436.49149,627.84094 c 0,5.94012 -3.57824,11.29533 -9.06619,13.56852 -5.48795,2.27319 -11.80486,1.01668 -16.00516,-3.18362 -4.2003,-4.2003 -5.45681,-10.51721 -3.18363,-16.00516 1.91013,-4.61148 5.99646,-7.87453 10.77737,-8.79919 1.52037,-0.29404 2.79115,0.99022 2.79115,2.54109 l 0,11.87836 z" /><path
       id="path332-5"
       style="color:#000000;font-style:normal;font-variant:normal;font-weight:normal;font-stretch:normal;font-size:medium;line-height:normal;font-family:sans-serif;font-variant-ligatures:normal;font-variant-position:normal;font-variant-caps:normal;font-variant-numeric:normal;font-variant-alternates:normal;font-variant-east-asian:normal;font-feature-settings:normal;font-variation-settings:normal;text-indent:0;text-align:start;text-decoration-line:none;text-decoration-style:solid;text-decoration-color:#000000;letter-spacing:normal;word-spacing:normal;text-transform:none;writing-mode:lr-tb;direction:ltr;text-orientation:mixed;dominant-baseline:auto;baseline-shift:baseline;text-anchor:start;white-space:normal;shape-padding:0;shape-margin:0;inline-size:0;clip-rule:nonzero;display:inline;overflow:visible;visibility:visible;isolation:auto;mix-blend-mode:normal;color-interpolation:sRGB;color-interpolation-filters:linearRGB;solid-color:#000000;solid-opacity:1;vector-effect:none;fill:#68afde;fill-opacity:1;fill-rule:nonzero;stroke:none;stroke-linecap:round;stroke-linejoin:round;stroke-miterlimit:4;stroke-dasharray:none;stroke-dashoffset:0;stroke-opacity:1;-inkscape-stroke:none;color-rendering:auto;image-rendering:auto;shape-rendering:auto;text-rendering:auto;enable-background:accumulate;stop-color:#000000"
       transform="matrix(-1.9681652,-1.9681652,1.9681652,-1.9681652,-1269.8365,315.75333)"
       d="m -436.49149,627.84094 c 0,5.94012 -3.57824,11.29533 -9.06619,13.56852 -5.48795,2.27319 -11.80486,1.01668 -16.00516,-3.18362 -4.2003,-4.2003 -5.45681,-10.51721 -3.18363,-16.00516 1.91013,-4.61148 5.99646,-7.87453 10.77737,-8.79919 1.52037,-0.29404 2.79115,0.99022 2.79115,2.54109 l 0,11.87836 z" /><path
       id="path334-3"
       style="fill:#244396;fill-opacity:1;fill-rule:nonzero;stroke:none;stroke-width:3.68222;stroke-linecap:round;stroke-linejoin:round;stroke-dasharray:none;stroke-opacity:1;paint-order:normal"
       d="m 824.92935,-60.837752 a 40.878381,40.878381 0 0 0 -10.50541,39.410747 40.878381,40.878381 0 0 0 39.41075,-10.50541 40.878381,40.878381 0 0 0 10.47894,-39.502264 40.878381,40.878381 0 0 0 -39.38428,10.596927 z" /></g></svg>
