<?xml version="1.0" encoding="UTF-8" standalone="no"?>
<!-- Created with Inkscape (http://www.inkscape.org/) -->

<svg
   width="500"
   height="500"
   viewBox="0 0 132.29166 132.29167"
   version="1.1"
   id="svg1"
   xml:space="preserve"
   xmlns="http://www.w3.org/2000/svg"
   xmlns:svg="http://www.w3.org/2000/svg"><defs
     id="defs1" /><g
     id="layer2"
     transform="rotate(45,316.90673,-923.54771)"><path
       id="path1"
       style="baseline-shift:baseline;display:inline;overflow:visible;vector-effect:none;fill:#ffffff;fill-opacity:1;stroke:none;stroke-linecap:round;stroke-linejoin:round;stroke-opacity:1;enable-background:accumulate;stop-color:#000000;stop-opacity:1"
       d="m 823.54102,-107.54492 c -8.31077,0.22639 -16.54532,2.88496 -23.49705,7.26724 -8.05932,5.050018 -14.50938,12.550495 -18.13361,21.351886 -3.10897,7.440793 -4.19544,15.667688 -3.28341,23.605482 0.83539,7.50422 3.63318,14.864044 8.00967,21.09806 7.48276,10.785893 19.72352,18.301442 32.84705,19.676881 1.68672,0.2282 3.4017,0.185099 5.08421,0.404039 1.3988,0.520357 1.37174,2.581219 0.26817,3.398228 -3.48432,4.535967 -3.14317,11.52528056 0.80748,15.6723837 0.93126,1.0586474 2.2796,1.9159557 3.53316,2.6804233 7.60362,4.89182 16.73246,7.282243 25.74975,7.088428 8.54019,-0.201064 17.19869,-2.837414 24.37044,-7.4754748 6.19408,-4.0319017 11.45882,-9.6590238 15.12081,-16.1323465 3.84957,-6.8066967 6.06043,-14.5665257 6.12723,-22.4477317 0.13289,-11.581562 -4.20845,-23.220023 -12.01674,-31.871469 -8.56834,-9.544375 -21.23036,-15.241856 -34.05357,-15.35314 -1.47951,-0.326195 -1.77904,-2.528509 -0.58113,-3.371388 1.96866,-2.527034 2.8043,-6.005279 2.39168,-9.066112 -0.45758,-3.776037 -2.78095,-7.271469 -6.13808,-9.080189 -6.13878,-4.07114 -13.31852,-6.41881 -20.5939,-7.18251 -1.99593,-0.21247 -4.00531,-0.29965 -6.01216,-0.26269 z" /><path
       d="m 796.69341,-90.400263 c -7.90589,7.569393 -12.61314,18.166734 -12.61314,29.5337 0,16.533768 9.95948,31.439519 25.23468,37.766697 7.63197,3.161254 15.83128,3.843942 23.58889,2.293664 -0.53641,0.105696 -1.07849,0.182943 -1.61912,0.267112 -0.22872,0.03568 -0.45539,0.08147 -0.68478,0.113277 -0.64882,0.08976 -1.30149,0.151921 -1.95493,0.210475 -0.24151,0.02173 -0.48147,0.05419 -0.72351,0.07162 -0.62885,0.04508 -1.26037,0.06154 -1.89208,0.07747 -0.27141,0.0069 -0.54158,0.02625 -0.81339,0.02777 -0.62228,0.0033 -1.24576,-0.02294 -1.86943,-0.04823 -0.27799,-0.01119 -0.55536,-0.009 -0.83349,-0.02594 -0.62301,-0.03805 -1.24604,-0.106668 -1.86906,-0.173569 -0.28032,-0.03004 -0.56062,-0.04556 -0.84081,-0.08148 -0.65597,-0.08423 -1.31035,-0.20089 -1.96479,-0.31754 -0.24404,-0.04347 -0.48892,-0.07221 -0.73264,-0.120219 -0.89675,-0.176741 -1.79111,-0.382917 -2.68173,-0.621558 -3.77014,-14.070342 0.23193,-29.083865 10.50547,-39.410666 0.005,-0.0054 0.0111,-0.01034 0.0164,-0.01571 l -3.6e-4,-3.65e-4 c 0.004,-0.0043 0.009,-0.0082 0.0131,-0.01242 l -3.7e-4,-3.65e-4 23.37878,-23.378775 c 3.05237,-3.052369 3.07849,-8.080885 -0.49257,-10.494505 -11.2295,-7.589737 -25.69406,-9.210117 -38.52967,-3.893418 -4.77349,1.97725 -9.02796,4.792364 -12.62154,8.232998 z m 36.45379,69.541442 c 0.0495,-0.01021 0.0988,-0.02176 0.14835,-0.03216 -0.0136,0.0028 -0.0274,0.0045 -0.0409,0.0073 -0.036,0.0074 -0.0714,0.01752 -0.10743,0.02485 z m 0.14835,-0.03216 c 0.0547,-0.01135 0.10907,-0.02351 0.16371,-0.03508 -0.0546,0.01169 -0.1091,0.02361 -0.16371,0.03508 z m 0.16371,-0.03508 c 0.54916,-0.117645 1.09585,-0.246556 1.63995,-0.386601 -0.39008,0.09944 -0.78335,0.185785 -1.17625,0.27369 -0.15529,0.03479 -0.30801,0.07993 -0.4637,0.112911 z m 2.34993,-0.570401 c 0.0578,-0.01597 0.11623,-0.02909 0.17394,-0.04531 -0.0421,0.01176 -0.0853,0.01943 -0.12753,0.03106 -0.0156,0.0043 -0.0308,0.01 -0.0464,0.01425 z"
       style="baseline-shift:baseline;display:inline;overflow:visible;vector-effect:none;fill:#6a86d1;stroke-linecap:round;stroke-linejoin:round;enable-background:accumulate;stop-color:#000000;stop-opacity:1"
       id="path8" /><path
       d="m 824.94563,-60.853774 3.6e-4,3.65e-4 c 0.0332,-0.03318 0.0675,-0.06488 0.10085,-0.09793 -0.0339,0.03237 -0.068,0.06433 -0.10121,0.09756 z m 36.01931,-11.315576 c 0.13467,0.02391 0.26957,0.04633 0.40414,0.07162 0.0313,0.0059 0.0626,0.01124 0.0939,0.01717 0.0366,0.007 0.0734,0.0123 0.10999,0.01937 -0.20258,-0.03827 -0.40517,-0.07297 -0.60804,-0.108161 z m 2.3821,0.495128 c 0.32242,0.07725 0.64497,0.154005 0.9665,0.239342 0.23816,0.880499 0.44579,1.764761 0.62338,2.651397 8e-5,3.74e-4 2.9e-4,7.21e-4 3.7e-4,0.0011 0.1774,0.885789 0.32447,1.773935 0.44214,2.66309 5e-5,3.76e-4 3.2e-4,7.21e-4 3.7e-4,0.0011 1.1e-4,8.53e-4 2.5e-4,0.0017 3.6e-4,0.0026 0.11663,0.881864 0.2034,1.764908 0.262,2.647378 4.7e-4,0.0071 0.002,0.01412 0.002,0.02119 3e-4,0.0045 7e-5,0.009 3.7e-4,0.01352 0.058,0.884527 0.0873,1.76827 0.0877,2.650666 0,0.0017 0,0.0034 0,0.0051 0,0.0017 0,0.0034 0,0.0051 1.8e-4,0.886016 -0.0287,1.770642 -0.0859,2.651762 -4e-5,4.85e-4 3e-5,9.77e-4 0,0.0015 -1.5e-4,0.0023 -2.2e-4,0.0046 -3.7e-4,0.0069 -0.0573,0.881207 -0.14332,1.758839 -0.25725,2.632396 -0.1142,0.875711 -0.2568,1.747035 -0.42716,2.612299 -0.17037,0.865348 -0.36835,1.724719 -0.59415,2.576854 -0.22485,0.848545 -0.47731,1.690065 -0.75639,2.522774 -0.001,0.0034 -0.002,0.0069 -0.003,0.01023 -3.7e-4,0.0011 -7.3e-4,0.0022 -0.001,0.0033 -0.28024,0.835165 -0.58786,1.661362 -0.92193,2.477829 -0.33385,0.815939 -0.69435,1.621924 -1.08124,2.41644 -6.4e-4,0.0013 -0.001,0.0027 -0.002,0.004 -2.3e-4,4.9e-4 -4.9e-4,9.72e-4 -7.3e-4,0.0015 -0.3874,0.795279 -0.8011,1.579252 -1.24092,2.350301 -8e-5,1.43e-4 -2.8e-4,2.22e-4 -3.7e-4,3.66e-4 -0.44009,0.771511 -0.90657,1.530173 -1.39841,2.274662 -0.49195,0.744649 -1.00964,1.475035 -1.55262,2.189887 -1.08594,1.429686 -2.27303,2.796825 -3.5587,4.090738 l 3.6e-4,3.65e-4 -0.0161,0.01608 -23.36234,23.3623318 c -3.05236,3.0523684 -3.07885,8.08125029 0.49221,10.4948704 11.2295,7.589737 25.69406,9.2101208 38.52967,3.8934174 15.27518,-6.32719838 25.23504,-21.2332946 25.23504,-37.7670626 0,-16.533769 -9.95984,-31.439154 -25.23504,-37.766333 -2.01437,-0.834376 -4.07137,-1.47072 -6.14725,-1.958949 z"
       style="baseline-shift:baseline;display:inline;overflow:visible;vector-effect:none;fill:#68afde;stroke-linecap:round;stroke-linejoin:round;enable-background:accumulate;stop-color:#000000;stop-opacity:1"
       id="path7" /><path
       d="m 824.92955,-60.837696 a 40.878381,40.878381 0 0 0 -10.50547,39.410666 40.878381,40.878381 0 0 0 39.41067,-10.505467 40.878381,40.878381 0 0 0 10.47879,-39.502383 40.878381,40.878381 0 0 0 -39.38399,10.597184 z"
       style="baseline-shift:baseline;display:inline;overflow:visible;vector-effect:none;fill:#244396;stroke-linecap:round;stroke-linejoin:round;enable-background:accumulate;stop-color:#000000;stop-opacity:1"
       id="path6" /></g></svg>
